<svg id="Layer_1" data-name="Layer 1" xmlns="http://www.w3.org/2000/svg" xmlns:xlink="http://www.w3.org/1999/xlink" viewBox="0 0 500 213.67"><defs><style>.cls-1{fill:none;}.cls-2{clip-path:url(#clip-path);}.cls-3{clip-path:url(#clip-path-2);}.cls-4{fill:#fff;}</style><clipPath id="clip-path"><rect class="cls-1" width="500" height="213.67"/></clipPath><clipPath id="clip-path-2"><rect class="cls-1" width="500" height="213.67"/></clipPath></defs><title>00-Artboard 2</title><g id="Artwork_18" data-name="Artwork 18"><g class="cls-2"><g class="cls-3"><path class="cls-4" d="M0,55.44H4.39c0,7.39,7.62,15.71,26.45,15.71,18.36,0,27-4.27,27-11.9,0-18.71-55.33-5.77-55.21-37.65C2.66,8.08,15,0,30,0,45.39,0,59.25,8.43,59.25,23.1H55c0-5.66-9-9.93-25.18-9.93-16.87,0-22.41,4.62-22.41,9.58,0,17,55.21,6.47,55.21,36.5,0,15-12.93,25.07-31.53,25.07C11.55,84.32,0,71.15,0,55.44"/><path class="cls-4" d="M76.34,61.1V25.29h4.74V56.48c0,12.13,4.39,14.21,18.94,14.21,22.3,0,23.8-10.63,23.8-21.25V25.29h4.73v57.3h-4.5V68.72C122,76.46,112.27,84,100.14,84c-16.87,0-23.8-8.32-23.8-22.87"/><path class="cls-4" d="M198.55,54.4C198.55,71.15,191,84,173.83,84a27.44,27.44,0,0,1-25.06-15.13v37.31H144V25.29h4.74V39.5a27.39,27.39,0,0,1,25.06-15.59c17.21,0,24.72,13.28,24.72,30.49M149,54.4c0,10.28,5.19,17.44,22.29,17.44,17.44,0,22.52-7.16,22.52-17.44,0-10.63-5.08-17.91-22.52-17.91-17.1,0-22.29,7.28-22.29,17.91"/><path class="cls-4" d="M207.79,53.59c0-16.63,11.21-29.68,28.64-29.68,14.21,0,25.76,8.66,25.76,28.76v6h-49.9c0,6.23,6.13,12.24,24.38,12.7,13.51-.23,20.55-2.65,20.55-8.55H262C262,74.5,250.76,84,236.43,84c-19.63,0-28.64-13.63-28.64-30.38m50-4.15c0-4.62-4.16-12.83-21.83-12.83-18.48,0-23.45,7-23.45,12.83Z"/><path class="cls-4" d="M274.09,25.29h4.5v17.1c2.77-6.12,8-17.79,24.84-17.79a23.56,23.56,0,0,1,11.66,2.89V41.35c-2.31-1.85-10.51-3.46-16.4-3.46-18.94,0-19.86,13.39-19.86,21.25V82.59h-4.74Z"/><path class="cls-4" d="M6.24,110.41H31.88c10.16,0,33.49,1.62,33.49,21,0,8.43-3.34,15.6-15.82,17.79,13.28,2.31,16.28,10.74,16.28,19.06,0,22.06-23.44,23-33,23H6.24ZM30.72,143.1c19.87,0,29.8-.35,29.8-9.59s-11.32-9.82-29.8-9.82H11.2V143.1ZM29,178c25.64,0,32.11-2.89,32.11-10.86,0-10.86-11.44-12.35-32.11-12.35H11.2V178Z"/><path class="cls-4" d="M75.31,162.27c0-16.63,10.85-30.15,29.45-30.15s29.45,13.52,29.45,30.15-10.74,30.38-29.45,30.38S75.31,179,75.31,162.27m54.17,0c0-10.63-7.16-17.32-24.72-17.32S80,151.64,80,162.27s7.17,17.56,24.72,17.56,24.72-6.82,24.72-17.56"/><path class="cls-4" d="M145.53,134h4.28v15h.35c3.11-6.59,10.51-16.64,25.87-16.64,14.67,0,21.59,9.71,21.59,24.15v34.76h-4.73V161.12c0-10.28-3.58-15.48-19.52-15.48-20.1,0-23.1,10.62-23.1,18.48v27.14h-4.74Z"/><path class="cls-4" d="M198.55,202c17.44,0,18.13-7.27,18.13-16.52V134h4.74v49.66c0,14.44-.81,30-22.87,30Z"/><path class="cls-4" d="M351.11,192.65H263c-18.6,0-29.45-13.63-29.45-30.38S244.4,132.12,263,132.12h88.11c18.72,0,29.46,13.52,29.46,30.15s-10.74,30.38-29.46,30.38m0-12.82c17.56,0,24.72-6.82,24.72-17.56S368.67,145,351.11,145H263c-17.56,0-24.72,6.69-24.72,17.32s7.16,17.56,24.72,17.56Z"/><path class="cls-4" d="M391.31,169.78V134H396v31.18c0,12.13,4.39,14.2,18.95,14.2,22.29,0,23.79-10.62,23.79-21.25V134h4.73v57.28H439V177.4c-2.08,7.74-11.78,15.25-23.91,15.25-16.86,0-23.79-8.32-23.79-22.87"/><path class="cls-4" d="M459,134h4.5v17.09c2.77-6.12,8-17.79,24.83-17.79A23.6,23.6,0,0,1,500,136.17V150c-2.31-1.85-10.51-3.47-16.4-3.47-18.94,0-19.87,13.4-19.87,21.25v23.45H459Z"/><path class="cls-4" d="M210,117.26c0-5,4-7.83,9-7.83s8.88,2.88,8.88,7.83S223.93,125,219,125s-9-2.88-9-7.73"/></g></g></g></svg>